<svg xmlns="http://www.w3.org/2000/svg" viewBox="0 0 1024 1024" width="1024" height="1024"><defs><radialGradient id="g" cx="50%" cy="50%" r="50%"><stop offset="0%" stop-color="#9a86e8" stop-opacity="0.34"/><stop offset="62%" stop-color="#9a86e8" stop-opacity="0"/></radialGradient></defs><rect width="1024" height="1024" rx="208" fill="#16171a"/><rect width="1024" height="1024" rx="208" fill="url(#g)"/><g transform="translate(-189.63 -189.63) scale(1.3704)"><g transform="translate(242 242) scale(2.1094)"><path d="M232,120v72a8,8,0,0,1-8,8H32a8,8,0,0,1-8-8V120Z"  fill="#9a86e8" opacity="0.45"/><path fill="#e4e3dc" d="M224,64H176V56a24,24,0,0,0-24-24H104A24,24,0,0,0,80,56v8H32A16,16,0,0,0,16,80V192a16,16,0,0,0,16,16H224a16,16,0,0,0,16-16V80A16,16,0,0,0,224,64ZM96,56a8,8,0,0,1,8-8h48a8,8,0,0,1,8,8v8H96ZM32,80H224v32H192v-8a8,8,0,0,0-16,0v8H80v-8a8,8,0,0,0-16,0v8H32ZM224,192H32V128H64v8a8,8,0,0,0,16,0v-8h96v8a8,8,0,0,0,16,0v-8h32v64Z"/></g></g></svg>