<?xml version="1.0" encoding="UTF-8" standalone="no"?>
<!-- Created with Inkscape (http://www.inkscape.org/) -->

<svg
   width="134.84625mm"
   height="143.59238mm"
   viewBox="0 0 134.84625 143.59238"
   version="1.1"
   id="svg1"
   xml:space="preserve"
   xmlns:inkscape="http://www.inkscape.org/namespaces/inkscape"
   xmlns:sodipodi="http://sodipodi.sourceforge.net/DTD/sodipodi-0.dtd"
   xmlns="http://www.w3.org/2000/svg"
   xmlns:svg="http://www.w3.org/2000/svg"><sodipodi:namedview
     id="namedview1"
     pagecolor="#ffffff"
     bordercolor="#000000"
     borderopacity="0.25"
     inkscape:showpageshadow="2"
     inkscape:pageopacity="0.0"
     inkscape:pagecheckerboard="0"
     inkscape:deskcolor="#d1d1d1"
     inkscape:document-units="mm"><inkscape:page
       x="0"
       y="0"
       width="134.84625"
       height="143.59238"
       id="page2"
       margin="0"
       bleed="0" /></sodipodi:namedview><defs
     id="defs1" /><g
     inkscape:label="Layer 1"
     inkscape:groupmode="layer"
     id="layer1"
     transform="translate(-44.422459,-58.103436)"><path
       style="fill:#000000"
       d="m 112.96644,201.55803 c -0.36381,-0.0534 -1.55443,-0.22418 -2.64584,-0.3795 -5.17958,-0.73713 -11.467013,-2.51643 -17.223543,-4.87414 -9.68521,-3.9668 -18.54426,-9.99526 -26.4927,-18.02793 -12.66505,-12.79928 -19.91215,-27.46928 -21.76546,-44.05894 -1.74962,-15.66153 2.05111,-31.3666 10.69955,-44.211783 7.49448,-11.131257 16.75371,-18.960228 29.24986,-24.731683 17.750163,-8.198069 35.283543,-9.360797 53.048963,-3.517949 10.78367,3.54663 20.12017,9.749209 27.23776,18.095053 3.93129,4.609708 7.09312,11.313411 8.39344,17.795816 0.65833,3.281916 0.65629,10.239546 -0.004,13.274166 -2.05241,9.43407 -7.90799,17.22806 -16.03876,21.34818 -6.37061,3.22819 -13.0933,3.66704 -18.96298,1.2379 -9.7774,-4.04633 -14.53986,-13.99726 -11.46442,-23.95435 0.59342,-1.92129 2.31913,-4.91396 3.66208,-6.35068 1.27784,-1.36705 4.46815,-3.449401 6.18739,-4.038577 2.09355,-0.71745 5.95914,-0.655821 7.9219,0.126297 5.44008,2.16775 7.58682,8.91341 4.00899,12.59738 -0.51904,0.53444 -0.98852,0.9269 -1.04329,0.87213 -0.0548,-0.0548 0.019,-0.50841 0.16403,-1.00809 0.53804,-1.85439 -0.60477,-4.17633 -2.47297,-5.02452 -1.44478,-0.65596 -3.68032,-0.65562 -5.12608,7.6e-4 -1.61587,0.73361 -3.3123,2.41784 -4.2,4.1698 -0.70756,1.39642 -0.77608,1.76856 -0.76939,4.17877 0.008,3.05512 0.55831,4.80443 2.19354,6.97878 2.82173,3.75205 7.2976,5.85971 12.48349,5.8784 4.18147,0.0151 8.08522,-1.5328 11.63455,-4.61318 3.25375,-2.82387 5.6679,-6.68849 6.88527,-11.02212 0.80405,-2.86226 0.9998,-8.10892 0.41955,-11.2448 -1.65515,-8.944958 -6.6573,-16.828698 -14.30916,-22.552242 -3.58542,-2.681875 -10.70467,-5.957691 -15.61042,-7.182902 -15.98046,-3.991123 -32.16387,-0.904225 -47.095833,8.983273 -4.65313,3.081163 -11.1571,9.137976 -14.34122,13.355241 -7.63965,10.11846 -11.40611,20.66364 -11.90311,33.3258 -0.40415,10.29672 2.57963,22.66191 8.15674,33.80271 7.98604,15.95283 20.25979,27.74206 34.069073,32.72416 1.22273,0.44114 2.17523,0.75832 2.11667,0.70484 -0.0586,-0.0535 -1.11851,-0.7816 -2.35544,-1.61807 -8.188413,-5.53739 -15.186213,-13.62004 -19.887703,-22.97085 -2.63207,-5.23491 -4.9352,-12.73861 -5.94206,-19.35945 -0.68846,-4.5272 -0.69446,-14.95122 -0.011,-19.05001 1.36355,-8.17676 3.80152,-15.27469 7.30969,-21.28151 1.29777,-2.2221 4.56562,-6.63106 6.73465,-9.08635 2.97711,-3.370032 9.144113,-8.531589 13.648453,-11.423264 8.48826,-5.449249 17.99476,-8.410367 26.92585,-8.386957 8.9227,0.02339 15.81534,2.92562 21.66092,9.120609 2.6566,2.815386 4.59428,6.077771 5.83706,9.827578 0.9234,2.786154 0.96828,3.088634 0.98269,6.623644 0.0173,4.23872 -0.33508,5.91779 -1.91327,9.11725 -1.16805,2.368 -4.25167,5.62642 -6.24832,6.60252 -2.63724,1.28927 -6.48477,1.94819 -7.9543,1.36226 -0.45587,-0.18176 -0.39102,-0.24973 0.46812,-0.49065 3.12793,-0.87714 7.11663,-4.35428 8.61539,-7.51044 1.77868,-3.74563 2.28415,-7.772 1.41122,-11.24129 -2.12436,-8.442869 -9.47601,-14.222629 -18.82911,-14.803177 -4.49012,-0.278703 -8.91491,0.736515 -13.49375,3.095987 -3.25037,1.674913 -5.38978,3.306301 -8.34672,6.364718 -5.21272,5.391612 -8.19464,11.462552 -9.40338,19.144492 -0.43153,2.7425 -0.35322,8.84472 0.15109,11.77396 1.4481,8.41109 4.71496,14.99571 10.36886,20.89927 3.41102,3.56163 5.72026,5.49074 9.28844,7.75941 8.30422,5.27987 17.85408,8.39037 30.75005,10.01563 3.65586,0.46075 15.10422,0.4633 17.5596,0.004 0.9993,-0.18696 1.85635,-0.30048 1.90456,-0.25227 0.22975,0.22975 -5.24507,5.72534 -7.55363,7.58228 -4.24738,3.41646 -8.12607,5.44562 -12.78967,6.69098 -1.72627,0.46098 -2.91226,0.57913 -5.86774,0.58451 -4.94177,0.009 -8.59866,-0.73511 -14.41979,-2.93423 -13.65762,-5.15961 -27.49814,-17.76698 -33.61863,-30.62332 -2.34752,-4.93107 -3.8429,-9.99538 -4.45752,-15.09598 -0.36457,-3.02545 -0.37093,-9.39823 -0.0123,-12.31007 0.597,-4.84719 2.40305,-10.75015 4.56749,-14.92857 0.45611,-0.88052 0.9802,-1.95813 1.16464,-2.3947 0.31706,-0.75048 0.28344,-0.73605 -0.61676,0.26459 -11.552893,12.84183 -14.776983,31.83014 -8.513203,50.13854 5.233693,15.29756 18.294853,30.02192 32.429783,36.55938 3.95072,1.82722 10.7686,3.83001 13.39063,3.93356 0.41042,0.0162 -1.37982,0.9437 -4.14884,2.14943 -2.7782,1.20973 -7.09135,2.39331 -11.39024,3.12564 -2.50559,0.42683 -4.20575,0.52684 -8.46667,0.49804 -2.93233,-0.0198 -5.62917,-0.0797 -5.99297,-0.13312 z"
       id="path1"
       inkscape:export-filename="AxiOM-Black.png"
       inkscape:export-xdpi="96"
       inkscape:export-ydpi="96" /></g></svg>
