<?xml version="1.0" encoding="UTF-8"?>
<svg xmlns="http://www.w3.org/2000/svg" width="1024" height="1024" viewBox="0 0 1024 1024">
  <path d="M 422.00 897.50 L 420.50 897.00 L 436.50 875.00 L 443.50 849.00 L 443.50 829.00 L 436.50 805.00 L 418.50 775.00 L 355.50 709.00 L 325.00 665.50 L 328.50 679.00 L 346.50 715.00 L 373.50 754.00 L 372.00 754.50 L 361.00 746.50 L 341.50 728.00 L 316.50 695.00 L 295.50 656.00 L 282.50 618.00 L 275.50 572.00 L 276.50 528.00 L 281.50 500.00 L 287.50 484.00 L 287.00 480.50 L 272.50 520.00 L 266.50 547.00 L 264.50 566.00 L 264.50 590.00 L 270.50 631.00 L 275.50 651.00 L 288.00 684.50 L 279.50 673.00 L 265.50 644.00 L 255.50 605.00 L 252.50 575.00 L 252.50 552.00 L 257.50 515.00 L 266.50 484.00 L 274.50 464.00 L 299.50 418.00 L 323.50 386.00 L 343.00 365.50 L 369.00 342.50 L 416.00 311.50 L 464.00 289.50 L 498.00 278.50 L 529.00 271.50 L 556.00 267.50 L 588.00 266.50 L 588.50 265.00 L 549.00 260.50 L 511.00 259.50 L 471.00 261.50 L 430.00 268.50 L 431.00 266.50 L 463.00 255.50 L 494.00 248.50 L 525.00 243.50 L 565.00 240.50 L 596.00 241.50 L 630.00 245.50 L 652.00 250.50 L 681.50 261.00 L 638.00 234.50 L 620.00 220.50 L 602.50 202.00 L 603.50 200.00 L 593.50 183.00 L 587.50 167.00 L 583.50 148.00 L 584.00 129.50 L 594.50 148.00 L 610.50 170.00 L 628.00 188.50 L 645.00 202.50 L 660.00 212.50 L 673.00 219.50 L 675.50 219.00 L 658.50 202.00 L 648.50 184.00 L 648.00 178.50 L 658.00 189.50 L 674.00 202.50 L 700.00 221.50 L 715.00 229.50 L 704.50 208.00 L 703.50 184.00 L 705.00 180.50 L 712.50 198.00 L 722.50 214.00 L 742.00 232.50 L 761.00 246.50 L 784.00 259.50 L 798.00 275.50 L 815.00 290.50 L 834.00 298.50 L 848.00 298.50 L 848.50 307.00 L 845.50 318.00 L 839.50 328.00 L 829.00 337.50 L 816.00 344.50 L 807.00 346.50 L 821.50 332.00 L 825.50 323.00 L 823.00 320.50 L 814.00 320.50 L 802.00 326.50 L 796.00 327.50 L 804.50 317.00 L 804.00 315.50 L 795.00 315.50 L 784.00 319.50 L 779.00 319.50 L 791.50 311.00 L 771.00 306.50 L 743.00 306.50 L 742.00 309.50 L 729.00 308.50 L 722.00 311.50 L 711.50 312.00 L 718.00 315.50 L 729.00 315.50 L 731.50 317.00 L 722.50 325.00 L 722.50 327.00 L 725.00 327.50 L 727.00 325.50 L 730.50 327.00 L 737.50 341.00 L 739.50 353.00 L 743.00 356.50 L 748.00 355.50 L 756.50 346.00 L 754.50 357.00 L 746.50 367.00 L 747.00 372.50 L 750.00 369.50 L 752.50 372.00 L 752.50 381.00 L 754.50 385.00 L 763.00 391.50 L 769.00 390.50 L 777.50 385.00 L 776.50 391.00 L 770.50 402.00 L 745.00 430.50 L 745.50 418.00 L 740.50 399.00 L 731.50 381.00 L 712.50 352.00 L 687.00 325.50 L 677.00 317.50 L 659.00 307.50 L 641.50 301.00 L 642.00 299.50 L 664.00 297.50 L 683.00 300.50 L 684.00 298.50 L 666.00 291.50 L 632.00 287.50 L 593.00 288.50 L 567.00 293.50 L 600.00 296.50 L 637.00 306.50 L 656.00 315.50 L 671.00 325.50 L 694.50 347.00 L 693.00 347.50 L 672.00 333.50 L 648.00 323.50 L 606.00 316.50 L 576.00 316.50 L 551.00 320.50 L 522.00 329.50 L 495.00 342.50 L 475.00 355.50 L 457.00 370.50 L 438.50 392.00 L 425.50 413.00 L 414.50 441.00 L 409.50 465.00 L 408.50 494.00 L 410.50 513.00 L 418.50 545.00 L 426.50 564.00 L 441.50 591.00 L 451.50 605.00 L 471.00 626.50 L 491.00 643.50 L 510.00 656.50 L 535.00 670.50 L 565.00 683.50 L 596.00 692.50 L 624.00 697.50 L 679.00 699.50 L 729.00 694.50 L 774.50 682.00 L 758.00 697.50 L 741.00 709.50 L 718.00 721.50 L 702.00 727.50 L 666.00 734.50 L 619.50 735.00 L 651.00 742.50 L 683.50 743.00 L 672.00 747.50 L 652.00 750.50 L 627.00 750.50 L 604.00 747.50 L 563.00 735.50 L 517.00 715.50 L 491.00 700.50 L 468.00 682.50 L 466.50 683.00 L 490.00 706.50 L 522.00 729.50 L 555.00 746.50 L 587.00 757.50 L 561.00 753.50 L 524.00 740.50 L 481.00 717.50 L 454.00 696.50 L 422.50 665.00 L 399.50 633.00 L 384.50 603.00 L 375.50 578.00 L 367.50 542.00 L 366.50 499.00 L 368.50 482.00 L 376.00 453.50 L 364.50 478.00 L 356.50 504.00 L 351.50 535.00 L 351.00 572.50 L 346.50 554.00 L 345.50 509.00 L 348.50 489.00 L 356.50 460.00 L 364.50 440.00 L 382.50 406.00 L 415.00 363.50 L 379.50 396.00 L 364.50 415.00 L 346.50 444.00 L 335.50 470.00 L 328.50 494.00 L 325.50 514.00 L 324.50 543.00 L 328.50 574.00 L 337.50 605.00 L 348.50 630.00 L 365.50 658.00 L 386.50 684.00 L 422.00 715.50 L 396.50 684.00 L 383.50 664.00 L 369.50 633.00 L 363.50 614.00 L 363.00 602.50 L 369.50 620.00 L 378.50 637.00 L 400.50 669.00 L 437.00 707.50 L 480.50 747.00 L 497.50 769.00 L 505.50 786.00 L 508.50 801.00 L 508.00 811.50 L 499.50 792.00 L 491.50 780.00 L 469.00 756.50 L 455.50 746.00 L 473.50 771.00 L 480.50 788.00 L 482.50 797.00 L 481.50 827.00 L 472.50 850.00 L 462.50 865.00 L 442.00 885.50 L 422.00 897.50 Z M 231.00 344.50 L 229.50 344.00 L 237.50 335.00 L 261.00 312.50 L 304.00 280.50 L 354.00 254.50 L 409.50 236.00 L 401.50 222.00 L 392.00 213.50 L 371.00 201.50 L 340.00 189.50 L 386.00 190.50 L 425.00 196.50 L 495.00 212.50 L 535.00 213.50 L 512.00 200.50 L 491.50 180.00 L 481.50 161.00 L 478.50 151.00 L 478.00 140.50 L 500.00 162.50 L 527.00 180.50 L 566.00 195.50 L 596.00 202.50 L 617.50 230.00 L 617.00 231.50 L 594.00 227.50 L 526.00 229.50 L 481.00 236.50 L 437.00 247.50 L 385.00 265.50 L 330.00 289.50 L 271.00 319.50 L 231.00 344.50 Z M 592.50 224.00 L 593.00 221.50 L 586.00 218.50 L 564.00 211.50 L 559.50 212.00 L 574.00 219.50 L 592.50 224.00 Z M 787.50 287.00 L 774.00 273.50 L 748.50 261.00 L 769.00 281.50 L 787.50 287.00 Z M 737.50 288.00 L 726.50 279.00 L 735.00 279.50 L 746.00 283.50 L 742.00 278.50 L 727.00 270.50 L 705.00 264.50 L 697.00 263.50 L 695.50 265.00 L 706.00 272.50 L 707.00 275.50 L 672.50 276.00 L 693.00 284.50 L 737.50 288.00 Z M 206.00 582.50 L 201.50 571.00 L 198.50 547.00 L 199.50 514.00 L 203.50 493.00 L 213.50 467.00 L 230.50 437.00 L 246.50 415.00 L 271.50 386.00 L 238.00 416.50 L 203.00 441.50 L 178.00 452.50 L 157.00 456.50 L 150.50 455.00 L 171.00 442.50 L 186.00 430.50 L 263.00 353.50 L 310.00 318.50 L 323.00 310.50 L 348.50 299.00 L 326.00 315.50 L 310.00 331.50 L 329.00 317.50 L 358.00 302.50 L 396.00 288.50 L 433.00 280.50 L 391.00 303.50 L 362.00 323.50 L 336.00 345.50 L 300.50 384.00 L 273.50 424.00 L 251.50 469.00 L 237.50 508.00 L 230.00 550.50 L 227.50 535.00 L 227.50 510.00 L 231.50 488.00 L 239.50 466.00 L 237.50 466.00 L 223.50 495.00 L 214.50 521.00 L 208.50 551.00 L 206.00 582.50 Z M 832.50 312.00 L 834.00 308.50 L 824.50 306.00 L 832.50 312.00 Z M 687.00 625.50 L 655.00 623.50 L 616.00 612.50 L 588.00 597.50 L 566.00 578.50 L 567.50 583.00 L 577.50 595.00 L 598.50 613.00 L 574.00 601.50 L 557.00 588.50 L 539.50 569.00 L 522.50 539.00 L 517.50 520.00 L 516.00 519.50 L 515.50 527.00 L 519.50 549.00 L 532.00 580.50 L 520.50 567.00 L 510.50 549.00 L 502.50 521.00 L 500.50 503.00 L 502.50 474.00 L 508.50 454.00 L 516.50 438.00 L 526.50 423.00 L 546.50 402.00 L 546.00 400.50 L 527.50 415.00 L 512.50 431.00 L 500.50 448.00 L 490.50 469.00 L 482.50 500.00 L 482.50 478.00 L 485.50 463.00 L 498.50 431.00 L 517.50 406.00 L 532.00 392.50 L 550.00 379.50 L 569.00 370.50 L 600.00 362.50 L 632.00 361.50 L 649.00 364.50 L 672.00 372.50 L 687.00 381.50 L 704.50 398.00 L 716.50 418.00 L 721.50 437.00 L 721.50 453.00 L 717.50 468.00 L 709.50 482.00 L 701.00 490.50 L 682.00 499.50 L 661.00 499.50 L 648.50 492.00 L 657.00 493.50 L 668.00 492.50 L 679.00 486.50 L 687.50 477.00 L 693.50 460.00 L 692.50 447.00 L 686.50 432.00 L 674.00 419.50 L 659.00 411.50 L 648.00 408.50 L 634.00 407.50 L 608.00 413.50 L 586.00 427.50 L 573.50 442.00 L 566.50 455.00 L 562.50 469.00 L 563.00 494.50 L 571.50 461.00 L 579.50 452.00 L 574.50 463.00 L 570.50 487.00 L 573.50 507.00 L 582.50 529.00 L 587.50 536.00 L 609.00 555.50 L 623.00 563.50 L 642.00 570.50 L 645.50 570.00 L 622.00 558.50 L 601.50 539.00 L 591.50 519.00 L 607.00 534.50 L 619.00 543.50 L 637.00 552.50 L 659.00 558.50 L 695.00 559.50 L 716.00 555.50 L 740.00 546.50 L 762.00 532.50 L 778.50 517.00 L 790.50 501.00 L 800.50 482.00 L 806.50 466.00 L 812.50 437.00 L 813.50 396.00 L 820.50 414.00 L 825.50 442.00 L 825.50 467.00 L 821.50 489.00 L 816.50 504.00 L 806.50 524.00 L 791.50 545.00 L 774.50 562.00 L 776.00 562.50 L 794.00 549.50 L 812.50 530.00 L 824.50 512.00 L 836.00 483.50 L 832.50 509.00 L 819.50 538.00 L 806.50 556.00 L 789.00 573.50 L 766.00 589.50 L 746.00 598.50 L 725.00 604.50 L 678.50 610.00 L 700.00 613.50 L 724.00 613.50 L 756.50 607.00 L 753.00 609.50 L 735.00 617.50 L 716.00 622.50 L 687.00 625.50 Z M 751.50 401.00 L 752.50 398.00 L 747.00 395.50 L 749.50 401.00 L 751.50 401.00 Z M 751.50 405.00 L 751.00 403.50 L 751.50 405.00 Z" fill="#FFFFFF" fill-rule="evenodd" />
</svg>
