<svg xmlns="http://www.w3.org/2000/svg" viewBox="242 242 540 540" width="540" height="540"><g transform="translate(242 242) scale(22.5000)"><g fill="#e8923d" opacity="0.45" stroke="none"><path d="M7 5a1 1 0 0 1 1-1h13a1 1 0 0 1 1 1 7 7 0 0 1-7 7H8a1 1 0 0 1-1-1z"/><path d="M5 20a3 3 0 0 1 3-3h8a3 3 0 0 1 3 3 1 1 0 0 1-1 1H6a1 1 0 0 1-1-1z"/></g><g fill="none" stroke="#e4e3dc" stroke-width="1.8" stroke-linecap="round" stroke-linejoin="round"><path d="M7 10H6a4 4 0 0 1-4-4 1 1 0 0 1 1-1h4"/><path d="M7 5a1 1 0 0 1 1-1h13a1 1 0 0 1 1 1 7 7 0 0 1-7 7H8a1 1 0 0 1-1-1z"/><path d="M9 12v5"/><path d="M15 12v5"/><path d="M5 20a3 3 0 0 1 3-3h8a3 3 0 0 1 3 3 1 1 0 0 1-1 1H6a1 1 0 0 1-1-1"/></g></g></svg>