<?xml version="1.0" encoding="UTF-8" standalone="no"?>
<!-- Created with Inkscape (http://www.inkscape.org/) -->

<svg
   width="267.74338mm"
   height="283.03076mm"
   viewBox="0 0 267.74338 283.03076"
   version="1.1"
   id="svg1"
   xml:space="preserve"
   xmlns:inkscape="http://www.inkscape.org/namespaces/inkscape"
   xmlns:sodipodi="http://sodipodi.sourceforge.net/DTD/sodipodi-0.dtd"
   xmlns="http://www.w3.org/2000/svg"
   xmlns:svg="http://www.w3.org/2000/svg"><sodipodi:namedview
     id="namedview1"
     pagecolor="#ffffff"
     bordercolor="#000000"
     borderopacity="0.25"
     inkscape:showpageshadow="2"
     inkscape:pageopacity="0.0"
     inkscape:pagecheckerboard="0"
     inkscape:deskcolor="#d1d1d1"
     inkscape:document-units="mm"><inkscape:page
       x="0"
       y="0"
       width="267.74338"
       height="283.03076"
       id="page2"
       margin="0"
       bleed="0" /></sodipodi:namedview><defs
     id="defs1" /><g
     inkscape:label="Layer 1"
     inkscape:groupmode="layer"
     id="layer1"
     transform="translate(-5.3735609,-9.9545887)"><path
       style="fill:#ffffff;fill-opacity:1"
       d="m 132.24239,292.82328 c -18.19535,-1.21526 -37.457142,-7.09095 -53.717672,-16.38625 -4.28061,-2.447 -11.19641,-6.94294 -14.41254,-9.36954 -2.28843,-1.72664 -8.86354,-7.06825 -8.86354,-7.20072 0,-0.0446 1.27992,0.66136 2.84427,1.56874 3.72333,2.15968 8.57485,4.60645 14.61823,7.37245 15.57064,7.12653 27.812672,10.93359 42.465622,13.20609 3.46347,0.53714 4.92878,0.61546 11.50938,0.61516 8.07758,-3.7e-4 10.58721,-0.24618 16.40417,-1.60669 13.68915,-3.20173 25.68784,-10.80646 32.24239,-20.43515 2.93187,-4.30693 5.16284,-9.6112 6.15659,-14.6377 0.18288,-0.92505 0.33539,-3.46785 0.33891,-5.65066 0.007,-4.31924 -0.30083,-6.14143 -1.67196,-9.89841 -3.41285,-9.35142 -12.47804,-16.11352 -22.2791,-16.61892 -11.5865,-0.59746 -21.13793,6.06483 -22.08522,15.40483 -0.30223,2.97984 0.98501,6.70861 3.11283,9.01702 1.13692,1.23341 4.33953,3.02152 5.41173,3.02152 1.26493,0 0.57132,0.46298 -1.38318,0.92326 -2.35699,0.55506 -6.36182,0.43569 -8.97112,-0.26739 -3.86809,-1.04227 -7.82668,-3.73822 -10.0368,-6.83543 -2.65739,-3.724 -3.76523,-7.70465 -3.50827,-12.60586 0.23837,-4.54676 0.83304,-6.82118 4.54998,-17.40214 2.417,-6.88042 2.29439,-5.29885 2.44031,-31.47963 l 0.12867,-23.08489 h 12.53323 12.53324 l 0.0725,25.46614 0.0725,25.46615 0.59138,1.19062 c 0.86877,1.74907 1.83538,2.2672 5.64298,3.02482 8.77167,1.74535 15.77673,5.31535 21.28824,10.84915 6.40108,6.42698 9.4635,13.87867 9.46685,23.03541 0.001,3.98277 -0.3493,6.5231 -1.43408,10.38635 -1.86659,6.64752 -5.54258,13.07318 -10.78295,18.84865 -1.05703,1.16497 -1.85087,2.11813 -1.76408,2.11813 0.85316,0 9.01609,-4.98894 13.04428,-7.97227 15.77858,-11.68582 29.47869,-29.60335 38.10807,-49.83919 6.97328,-16.35231 10.54863,-35.88055 9.61319,-52.50633 -0.82711,-14.70019 -3.57486,-26.49894 -9.15336,-39.30409 -4.3601,-10.0084 -10.49297,-19.43254 -18.84819,-28.963252 l -1.26817,-1.446581 1.05834,0.637737 c 12.50845,7.53741 23.65782,18.191076 32.12189,30.693746 7.35972,10.87138 12.07673,21.48172 15.23439,34.26793 4.85249,19.64903 4.06482,38.64981 -2.4046,58.00507 -4.46082,13.34592 -12.77429,27.62831 -22.52651,38.70014 -18.94362,21.50695 -46.61344,35.64857 -76.66476,39.18217 -5.13166,0.60341 -16.46393,0.86808 -21.82812,0.50981 z M 116.63197,273.19907 C 93.680108,271.06955 67.037058,258.04606 46.940158,239.13276 30.737848,223.88467 18.718018,205.54366 12.071708,185.92713 3.6020883,160.9291 3.1406783,131.29908 10.824078,105.80857 17.173628,84.743275 29.201128,65.056672 45.851288,48.476088 67.989328,26.430545 96.714548,13.171463 128.40593,10.37024 c 5.60581,-0.4955016 17.29719,-0.5607014 22.75417,-0.126894 22.22078,1.766461 43.95084,9.208116 62.04479,21.247802 29.96963,19.941746 50.26744,50.396099 57.52273,86.305772 1.99151,9.85686 2.40865,14.31564 2.38865,25.5323 -0.0142,7.96556 -0.10477,10.11633 -0.59608,14.1552 -0.67714,5.56645 -2.34127,14.84247 -3.44134,19.1823 -0.95961,3.78573 -3.54211,12.46795 -3.6704,12.33967 -0.0522,-0.0522 0.0519,-1.51057 0.23141,-3.24076 0.45313,-4.36767 0.45181,-21.72266 -0.002,-26.16454 -1.34457,-13.16068 -3.69789,-23.82749 -7.74519,-35.10629 -7.3205,-20.40041 -18.5611,-36.873987 -34.36903,-50.369244 C 220.60081,71.630329 213.564,66.07243 210.42676,63.781221 198.12702,54.79838 181.66588,48.386097 163.72781,45.590076 c -4.5769,-0.713404 -4.35992,-0.783349 3.83645,-1.236667 17.50558,-0.968184 35.9196,2.493824 50.86615,9.563309 1.78263,0.843156 3.24115,1.495873 3.24115,1.45048 0,-0.137447 -4.18894,-3.126167 -7.14375,-5.096924 C 187.70197,32.378409 152.71407,28.1452 121.10965,38.96755 95.385578,47.776284 74.450968,63.945385 59.298198,86.708381 c -15.42136,23.166479 -21.87446,48.017729 -19.23716,74.083339 1.70594,16.86053 7.26897,32.39458 16.20262,45.24375 1.97781,2.84465 6.49863,8.52733 7.57756,9.525 0.46638,0.43124 0.0325,-0.44356 -1.24666,-2.51354 -6.45916,-10.45255 -11.39674,-23.0108 -13.67958,-34.79271 -4.33882,-22.39291 0.39099,-46.54064 12.74868,-65.0875 1.90486,-2.85889 4.74616,-6.65409 4.88082,-6.51944 0.0634,0.0634 -0.29441,0.93108 -0.79504,1.92826 -1.5004,2.98854 -3.26904,7.72039 -4.53745,12.13957 -5.34559,18.62418 -4.97322,38.25523 1.07889,56.87765 5.27016,16.21638 14.34375,31.41382 26.06189,43.65131 7.84203,8.18959 14.079132,13.30037 22.193782,18.18594 10.85407,6.53489 20.29611,9.60079 28.04584,9.10668 3.40699,-0.21722 5.49366,-0.75757 8.43471,-2.1842 2.04056,-0.98982 2.86518,-1.58767 4.64008,-3.36403 3.06125,-3.06378 4.37801,-6.09656 4.04555,-9.31778 -0.36979,-3.58291 -3.53372,-6.23284 -6.53288,-5.47158 -1.24263,0.31542 -1.3503,0.1091 -0.33486,-0.64163 6.7538,-4.99322 15.56489,-1.11159 17.3756,7.65464 2.39602,11.59986 -6.58141,26.28309 -20.27429,33.16007 -8.45609,4.2469 -18.22629,5.85566 -29.31433,4.82689 z m 5.5134,-127.44981 c -0.80544,-0.71967 -0.85278,-0.87118 -1.01262,-3.24115 -0.18442,-2.7344 -0.41419,-3.35721 -1.51347,-4.10236 -0.68692,-0.46563 -1.51247,-0.50971 -11.85085,-0.63278 l -11.112502,-0.1323 -1.50598,-0.763 c -2.85269,-1.44533 -7.9023,-6.33472 -8.85526,-8.5743 -0.30879,-0.7257 -0.35812,-4.16502 -0.29628,-20.66031 l 0.0742,-19.789677 0.75291,-1.086259 c 1.01349,-1.462207 5.6067,-5.89261 7.06767,-6.817147 2.64987,-1.676904 2.9633,-1.708263 17.073832,-1.708263 h 12.80871 l 0.001,-1.918229 c 0.003,-3.335186 0.87161,-5.070559 3.03029,-6.05111 0.98689,-0.448281 2.00264,-0.486154 13.18247,-0.491517 13.37446,-0.0064 13.17621,-0.02895 14.66558,1.667337 1.04488,1.190059 1.39599,2.412879 1.39788,4.868516 l 10e-4,1.911454 13.95677,0.07292 13.95677,0.07292 1.47935,0.693736 c 1.76974,0.829915 6.38053,5.135085 7.69731,7.187108 l 0.87751,1.367475 V 107.869 128.11567 l -0.76751,1.32292 c -1.12913,1.94624 -6.12498,6.86611 -7.71818,7.6008 -1.27689,0.58883 -1.54256,0.60402 -12.8255,0.73358 -10.42581,0.11971 -11.58929,0.17667 -12.23329,0.59899 -1.26972,0.83264 -1.60612,1.64836 -1.65075,4.00269 -0.045,2.37338 -0.42858,3.29137 -1.59802,3.8242 -0.48396,0.22051 -5.33422,0.30537 -17.45461,0.30537 h -16.78396 z"
       id="path1"
       inkscape:export-filename="AxiTools-Black.svg"
       inkscape:export-xdpi="96"
       inkscape:export-ydpi="96" /></g></svg>
