<?xml version="1.0" encoding="UTF-8" standalone="no"?>
<!-- Created with Inkscape (http://www.inkscape.org/) -->

<svg
   width="220.6573mm"
   height="218.59045mm"
   viewBox="0 0 220.6573 218.59045"
   version="1.1"
   id="svg1"
   xml:space="preserve"
   xmlns:inkscape="http://www.inkscape.org/namespaces/inkscape"
   xmlns:sodipodi="http://sodipodi.sourceforge.net/DTD/sodipodi-0.dtd"
   xmlns="http://www.w3.org/2000/svg"
   xmlns:svg="http://www.w3.org/2000/svg"><sodipodi:namedview
     id="namedview1"
     pagecolor="#505050"
     bordercolor="#eeeeee"
     borderopacity="1"
     inkscape:showpageshadow="0"
     inkscape:pageopacity="0"
     inkscape:pagecheckerboard="0"
     inkscape:deskcolor="#505050"
     inkscape:document-units="mm"><inkscape:page
       x="0"
       y="0"
       width="220.6573"
       height="218.59045"
       id="page2"
       margin="0"
       bleed="0" /></sodipodi:namedview><defs
     id="defs1" /><g
     inkscape:label="Layer 1"
     inkscape:groupmode="layer"
     id="layer1"
     transform="translate(236.35025,-10.837591)"><path
       style="fill:#ffffff;fill-opacity:1"
       d="m -143.94347,229.36751 c -0.65484,-0.0563 -2.20265,-0.1768 -3.43958,-0.26778 l -2.24896,-0.16541 3.43959,-1.12022 c 10.86157,-3.53742 19.41706,-8.70296 27.61481,-16.67294 5.60882,-5.45299 10.52447,-11.61063 16.50242,-20.67193 6.405875,-9.70994 11.733855,-19.09668 18.832085,-33.17799 7.48805,-14.85463 8.88845,-18.7792 8.08453,-22.65646 -0.25793,-1.24397 -0.53972,-1.7708 -1.41642,-2.64811 -1.5189,-1.51995 -3.09729,-1.94751 -7.18951,-1.94751 -8.82884,0 -22.335555,4.00349 -35.705005,10.58325 -12.49203,6.14793 -21.91684,12.78206 -30.93147,21.77269 l -5.26689,5.25287 0.17294,-2.82644 c 0.60104,-9.82335 5.58207,-23.0316 13.91517,-36.89904 9.71634,-16.16933 22.37583,-32.958948 42.592755,-56.488541 5.14983,-5.993667 7.12302,-8.254545 15.45599,-17.709463 1.40224,-1.591038 2.51665,-2.925683 2.47645,-2.965877 -0.0402,-0.04019 -0.78234,0.09203 -1.64922,0.293829 -2.76143,0.642836 -11.97997,2.450176 -17.451135,3.421378 -20.75321,3.683968 -41.38513,5.302598 -59.59186,4.675146 -4.62333,-0.159332 -9.42204,-0.36352 -10.66379,-0.45375 l -2.25773,-0.164055 -1.6876,3.540979 c -7.93635,16.652342 -12.43836,31.773606 -14.48516,48.652434 -0.58737,4.84368 -0.66247,18.84256 -0.12704,23.68021 2.24069,20.2449 10.51472,37.80024 22.6104,47.9734 1.45442,1.22325 0.85139,1.03571 -1.75841,-0.54684 -5.89204,-3.57286 -10.49883,-7.51879 -14.58633,-12.49387 -6.42764,-7.82338 -11.40325,-17.98636 -14.12308,-28.84727 -3.46767,-13.84718 -3.46816,-30.98909 -10e-4,-47.889588 2.3968,-11.684394 5.95871,-21.670654 13.95326,-39.11976 1.45707,-3.180245 2.71266,-5.845698 2.79019,-5.923229 0.0775,-0.07753 2.13829,-0.0016 4.57947,0.168657 8.4992,0.592888 22.02309,0.83886 30.62593,0.557024 13.97165,-0.457724 22.97444,-1.26715 38.50543,-3.461959 19.795295,-2.797431 42.540225,-8.021859 60.010565,-13.784208 3.10128,-1.022913 5.69359,-1.80494 5.76069,-1.737838 0.26421,0.264207 -1.62825,5.016166 -3.35706,8.429544 -3.10802,6.136539 -7.73247,12.613343 -13.76973,19.285314 -1.38262,1.527969 -6.0769,6.226297 -10.43176,10.440728 -20.28827,19.634087 -27.40094,27.394057 -35.636125,38.879265 -2.17015,3.0266 -7.42978,11.53166 -7.24537,11.71608 0.0491,0.0491 1.5066,-0.5223 3.23891,-1.26974 15.522695,-6.69754 30.011895,-10.31298 41.354705,-10.31909 8.35325,-0.004 13.52602,1.64401 17.51991,5.58342 2.19668,2.16671 3.21912,3.89044 4.24446,7.15574 0.55239,1.75916 0.61848,2.46673 0.6046,6.47297 -0.0137,3.9512 -0.10521,4.88384 -0.75298,7.67292 -2.33526,10.05484 -8.91145,23.08615 -18.88749,37.42726 -0.63872,0.9182 -0.18917,0.61781 3.09438,-2.06768 11.23405,-9.18792 21.01634,-22.46245 26.34854,-35.75487 6.14784,-15.32569 7.58698,-33.760478 3.9246,-50.272418 -1.81307,-8.174233 -5.52453,-17.675997 -9.3766,-24.00513 -0.59978,-0.985461 -1.16114,-1.910809 -1.24746,-2.05633 -0.4244,-0.715416 2.32366,1.769743 4.05572,3.667721 5.06488,5.550055 8.69895,10.907811 12.305,18.141408 10.43077,20.923761 11.72862,43.975509 3.82347,67.910749 -6.02399,18.23946 -18.20697,36.36496 -33.78309,50.26156 -9.8596,8.79647 -18.01522,14.33932 -29.17601,19.82908 -14.31395,7.04073 -27.891765,10.83682 -44.450005,12.42733 -4.21987,0.40534 -13.48163,0.70679 -15.74271,0.51238 z m -26.48826,-7.71637 c 3.43499,-6.82421 5.67928,-11.50662 11.06466,-23.0849 3.07052,-6.60145 6.98042,-15.24955 8.67251,-19.18229 0.68873,-1.60073 1.44768,-3.09963 1.68656,-3.33089 0.23888,-0.23126 1.86308,-0.99481 3.60933,-1.6968 14.51518,-5.83501 29.51835,-13.80088 50.733855,-26.9369 1.56435,-0.9686 2.84427,-1.69284 2.84427,-1.60943 0,0.0834 -1.71335,1.95669 -3.80744,4.16284 -9.213195,9.70619 -14.391405,16.68776 -18.281865,24.64868 -3.30829,6.76962 -5.18362,13.9304 -5.8205,22.225 -0.24884,3.24078 -0.1867,3.12856 -2.44876,4.42218 -1.12909,0.64571 -5.26758,3.02234 -9.19665,5.28141 -7.34425,4.22268 -22.52788,12.70074 -30.95625,17.28502 -2.61937,1.4247 -5.6811,3.10862 -6.80384,3.74203 -1.12274,0.63341 -2.07623,1.15165 -2.11888,1.15165 -0.0426,0 7.80388,-7.94742 17.43673,-17.66094 l 17.51426,-17.66093 2.06712,-0.008 c 1.59987,-0.007 2.31377,-0.13846 3.15831,-0.58371 2.90102,-1.52944 4.08506,-4.96513 2.71535,-7.87907 -0.98547,-2.09649 -2.90722,-3.30275 -5.26176,-3.30275 -3.81606,0 -6.40871,3.13778 -5.81656,7.03958 l 0.19078,1.25711 -5.84564,6.48643 c -3.21511,3.56754 -6.44392,7.16052 -7.17513,7.98439 -0.73122,0.82387 -3.77027,4.23195 -6.75345,7.57349 -2.98317,3.34155 -7.54898,8.47838 -10.14623,11.41519 -2.59726,2.9368 -4.74502,5.33964 -4.7728,5.33964 -0.0278,0 1.55262,-3.18492 3.51202,-7.0776 z m -8.08368,-16.01864 c -13.8653,-7.59015 -25.29995,-16.71738 -34.26282,-27.34884 -13.765,-16.3276 -21.44038,-35.87685 -23.26113,-59.24632 l -0.31089,-3.99035 1.04872,-2.22736 c 4.3428,-9.22355 13.00198,-18.289418 24.81535,-25.980808 2.62026,-1.70599 9.06025,-5.21841 9.56789,-5.21841 0.14488,0 -0.35771,2.47054 -1.11687,5.4901 -3.9588,15.746148 -5.16862,30.117358 -3.69184,43.854688 1.68228,15.6489 6.42122,28.54484 14.36445,39.08956 5.65715,7.50993 12.86514,13.52638 22.87898,19.09688 1.01033,0.56202 1.78594,1.17172 1.78594,1.4039 0,0.39973 -2.15462,5.26291 -5.77565,13.03622 -0.99749,2.14131 -1.95695,3.8598 -2.17257,3.89127 -0.21239,0.031 -1.95369,-0.80174 -3.86956,-1.85053 z m -0.20141,-79.0016 c -0.14493,-0.23451 0.23526,-5.18273 0.53097,-6.91049 0.0872,-0.50933 0.28147,-1.07487 0.43179,-1.25677 0.35558,-0.43029 29.84184,-0.48912 29.84184,-0.0596 0,0.41398 -1.78825,3.87405 -2.96598,5.73885 -1.873,2.96569 -0.52127,2.72122 -15.04575,2.72122 -7.01473,0 -12.71292,-0.1039 -12.79287,-0.23326 z m 8.51346,-20.3378 -5.49011,-0.0772 v -0.66303 c 0,-0.95108 1.59146,-7.174788 1.94879,-7.621098 0.41798,-0.52206 38.79705,-0.8629 38.79705,-0.34454 0,0.90531 -4.48363,7.946608 -5.24651,8.239348 -0.51655,0.19823 -17.76802,0.67131 -21.74099,0.5962 -1.52797,-0.0289 -5.24867,-0.0872 -8.26823,-0.1297 z m 4.17148,-21.145788 c -1.74388,-0.0579 -3.26829,-0.20277 -3.38756,-0.32204 -0.11927,-0.11928 0.37269,-1.70508 1.09326,-3.524015 1.58949,-4.012401 2.07257,-4.974087 2.49524,-4.967362 3.64504,0.058 35.45736,-0.284965 39.44746,-0.425276 l 5.52144,-0.19416 -0.18604,0.63787 c -0.32842,1.126059 -3.41328,6.087173 -4.50684,7.247973 l -1.05834,1.12341 -4.36562,0.16882 c -5.47595,0.21175 -30.80132,0.39583 -35.053,0.25478 z M -222.24543,72.81812 c -0.008,-0.111831 0.41731,-1.540581 0.94533,-3.175 3.63148,-11.240798 9.85962,-20.873986 19.71441,-30.492658 7.54289,-7.362171 15.12269,-12.733708 24.76978,-17.553461 10.60492,-5.29829 21.72567,-8.573235 34.85682,-10.264973 4.62621,-0.596012 16.37094,-0.669235 21.16667,-0.131965 12.46616,1.396597 24.521875,4.809822 34.263545,9.70073 2.96826,1.490249 6.6116,3.557202 6.28376,3.564932 -0.10919,0.0026 -2.07373,-0.466541 -4.36563,-1.042479 -10.66357,-2.67968 -19.980875,-3.802541 -31.551475,-3.802378 -12.56284,1.76e-4 -22.05568,1.199958 -34.47975,4.357835 -14.70142,3.736719 -30.18691,10.870103 -42.2939,19.482669 -9.79078,6.964876 -19.42499,16.336706 -26.33836,25.621054 -2.76975,3.719643 -2.95548,3.953169 -2.9712,3.735694 z"
       id="path1"
       inkscape:export-filename="axivale.png"
       inkscape:export-xdpi="96"
       inkscape:export-ydpi="96" /></g></svg>
