<svg xmlns="http://www.w3.org/2000/svg" viewBox="0 0 1024 1024" width="1024" height="1024" role="img" aria-label="AxiVale">
  <!-- AxiVale mark, white "V." as vector outlines (Playfair Display Black). No font dependency. -->
  <path fill="#ffffff" d="M654.0825 240.53999999999996V255.44000000000005Q636.9475 263.635 616.8325 287.84749999999997Q596.7175 312.06 579.5825 359.74L434.3075 768.0Q425.3675 767.255 415.31 766.8824999999999Q405.2525 766.51 394.8225 766.51Q385.1375 766.51 375.08000000000004 766.8824999999999Q365.02250000000004 767.255 356.0825 768.0L160.8925 303.12Q150.4625 277.045 138.91500000000002 266.615Q127.36750000000002 256.185 116.93750000000001 255.44000000000005V240.53999999999996Q143.75750000000002 241.28499999999997 179.89000000000004 242.02999999999997Q216.02250000000004 242.77499999999998 252.52750000000003 242.77499999999998Q290.52250000000004 242.77499999999998 324.0475 242.02999999999997Q357.5725 241.28499999999997 377.6875 240.53999999999996V255.44000000000005Q354.5925 256.185 341.1825 260.655Q327.77250000000004 265.125 325.91 278.1625Q324.0475 291.2 334.4775 318.02L468.5775 648.0550000000001L450.6975 671.15L535.6275 432.75Q558.7225000000001 367.19 560.2125000000001 328.8225Q561.7025 290.455 545.3125 273.32Q528.9225 256.185 499.1225 255.44000000000005V240.53999999999996Q527.4325 241.28499999999997 549.4100000000001 242.02999999999997Q571.3875 242.77499999999998 596.7175 242.77499999999998Q611.6175000000001 242.77499999999998 627.2625 242.02999999999997Q642.9075 241.28499999999997 654.0825 240.53999999999996Z"/>
  <ellipse cx="734.656" cy="715.008" rx="72.864" ry="63.296" fill="#ffffff"/>
</svg>
