<svg xmlns="http://www.w3.org/2000/svg" viewBox="0 0 1024 1024" width="1024" height="1024" role="img" aria-label="AxiVale">
  <!-- AxiVale mark, white "A." as vector outlines (Playfair Display Black). No font dependency. -->
  <path fill="#ffffff" d="M430.496 246.91200000000003 608.608 706.176Q618.912 731.2 630.688 741.8720000000001Q642.4639999999999 752.544 652.0319999999999 753.28V768.0Q625.5360000000001 766.528 590.2080000000001 766.1600000000001Q554.88 765.792 518.0799999999999 765.792Q480.544 765.792 447.424 766.1600000000001Q414.304 766.528 394.43199999999996 768.0V753.28Q431.96799999999996 751.808 441.904 740.4Q451.84 728.992 437.12 691.456L319.36 365.408L334.08 339.648L232.512 603.8720000000001Q214.11199999999997 651.712 210.06399999999996 680.784Q206.01599999999996 709.856 213.37599999999998 725.312Q220.736 740.768 236.928 746.656Q253.11999999999998 752.544 275.2 753.28V768.0Q247.96799999999996 766.528 226.25599999999997 766.1600000000001Q204.54399999999998 765.792 178.784 765.792Q164.79999999999998 765.792 148.976 766.1600000000001Q133.152 766.528 122.11199999999998 768.0V753.28Q139.04 750.336 155.59999999999997 731.568Q172.15999999999997 712.8 189.82399999999998 667.168L353.216 246.91200000000003Q370.88 248.38400000000001 391.856 248.38400000000001Q412.832 248.38400000000001 430.496 246.91200000000003ZM456.256 556.032V570.752H236.928L244.28799999999998 556.032Z M734.656 651.712Q769.248 651.712 788.384 667.5360000000001Q807.52 683.36 807.52 715.008Q807.52 746.656 788.384 762.48Q769.248 778.304 734.656 778.304Q699.328 778.304 680.56 762.48Q661.792 746.656 661.792 715.008Q661.792 683.36 680.56 667.5360000000001Q699.328 651.712 734.656 651.712Z"/>
</svg>
